<svg xmlns="http://www.w3.org/2000/svg" version="1.1" xmlns:xlink="http://www.w3.org/1999/xlink" xmlns:svgjs="http://svgjs.com/svgjs" preserveAspectRatio="none" viewBox="0 0 1920 1080">
  <g mask="url(&quot;#SvgjsMask1085&quot;)" fill="none">
      <path d="M1624 52 a206.72 206.72 0 1 0 413.44 0 a206.72 206.72 0 1 0 -413.44 0z" fill="rgba(255, 41, 93, 0.7)" class="float1"></path>
      <path d="M1034 315 a206.72 206.72 0 1 0 413.44 0 a206.72 206.72 0 1 0 -413.44 0z" fill="rgba(255, 41, 93, 0.5)" class="float2"></path>
      <path d="M969 898 a206.72 206.72 0 1 0 413.44 0 a206.72 206.72 0 1 0 -413.44 0z" fill="rgba(255, 41, 93, 0.5)" class="float3"></path>
      <path d="M-252 800 a291.41 291.41 0 1 0 582.82 0 a291.41 291.41 0 1 0 -582.82 0z" fill="rgba(251, 68, 227, 0.5)" class="float4"></path>
      <path d="M579 100 a291.41 291.41 0 1 0 582.82 0 a291.41 291.41 0 1 0 -582.82 0z" fill="rgba(251, 68, 227, 0.7)" class="float5"></path>
      <path d="M1579 598 a291.41 291.41 0 1 0 582.82 0 a291.41 291.41 0 1 0 -582.82 0z" fill="rgba(255, 186, 2, 0.5)" class="float6"></path>
      <path d="M295 1000 a206.72 206.72 0 1 0 413.44 0 a206.72 206.72 0 1 0 -413.44 0z" fill="rgba(255, 188, 2, 0.7)" class="float7"></path>
      <path d="M1423 1065 a206.72 206.72 0 1 0 413.44 0 a206.72 206.72 0 1 0 -413.44 0z" fill="rgba(75, 46, 197, 0.7)" class="float8"></path>
      <path d="M-23 155 a206.72 206.72 0 1 0 413.44 0 a206.72 206.72 0 1 0 -413.44 0z" fill="rgba(75, 46, 197, 0.5)" class="float9"></path>
  </g>
  <defs>
    <mask id="SvgjsMask1085">
        <rect width="1920" height="1080" fill="#ffffff"></rect>
    </mask>
    <style>
        .float1 {
            animation: float1 11s infinite;
        }
        .float2 {
            animation: float2 8s infinite;
        }
        .float3 {
            animation: float3 19s infinite;
        }
        .float4 {
            animation: float4 12s infinite;
        }
        .float5 {
            animation: float5 11s infinite;
        }
        .float6 {
            animation: float6 13s infinite;
        }
        .float7 {
            animation: float7 10s infinite;
        }
        .float8 {
            animation: float8 12s infinite;
        }
        .float9 {
            animation: float9 8s infinite;
        }

        @keyframes float1 {
          0%{transform: translate(0, 0)}
          50%{transform: translate(-8rem, -3rem)}
          100%{transform: translate(0, 0)}
        }

        @keyframes float2 {
          0%{transform: translate(0, 0)}
          50%{transform: translate(12rem, 3rem)}
          100%{transform: translate(0, 0)}
        }

        @keyframes float3 {
          0%{transform: translate(0, 0)}
          50%{transform: translate(-12rem, 8rem)}
          100%{transform: translate(0, 0)}
        }

        @keyframes float4 {
          0%{transform: translate(0, 0)}
          50%{transform: translate(-6rem, 8rem)}
          100%{transform: translate(0, 0)}
        }

        @keyframes float5 {
          0%{transform: translate(0, 0)}
          50%{transform: translate(-10rem, -10rem)}
          100%{transform: translate(0, 0)}
        }

        @keyframes float6 {
          0%{transform: translate(0, 0)}
          50%{transform: translate(5rem, 9rem)}
          100%{transform: translate(0, 0)}
        }

        @keyframes float7 {
          0%{transform: translate(0, 0)}
          50%{transform: translate(-8rem, 6rem)}
          100%{transform: translate(0, 0)}
        }

        @keyframes float8 {
          0%{transform: translate(0, 0)}
          50%{transform: translate(8rem, 6rem)}
          100%{transform: translate(0, 0)}
        }

        @keyframes float9 {
          0%{transform: translate(0, 0)}
          50%{transform: translate(6rem, -6rem)}
          100%{transform: translate(0, 0)}
        }
    </style>
  </defs>
</svg>