<svg xmlns="http://www.w3.org/2000/svg" xmlns:xlink="http://www.w3.org/1999/xlink" viewBox="0 0 665.72 772.57"><defs><style>.cls-1{fill:url(#linear-gradient);}.cls-2{fill:url(#linear-gradient-2);}</style><linearGradient id="linear-gradient" x1="362.74" y1="6.77" x2="476.17" y2="728.32" gradientUnits="userSpaceOnUse"><stop offset="0" stop-color="#ffbb03"/><stop offset="1" stop-color="#ff285f"/></linearGradient><linearGradient id="linear-gradient-2" x1="-11.9" y1="194.97" x2="196.06" y2="680.21" gradientUnits="userSpaceOnUse"><stop offset="0" stop-color="#ff44e4"/><stop offset="1" stop-color="#4b2ec5"/></linearGradient></defs><g id="Lager_2" data-name="Lager 2"><g id="Layer_1" data-name="Layer 1"><polyline class="cls-1" points="332.69 131.59 277.21 164.63 277.21 546.64 163.72 481.42 163.72 100.12 167.25 98.02 220.25 66.46 277.21 32.52 331.88 0 333.98 1.19 444.32 65.13 447.47 66.94 552.23 127.62 665.72 193.37 665.72 575.33 552.23 642.94 499.47 674.36 447.47 705.3 446.37 705.97 334.5 772.57 333.98 772.28 333.98 194.56 447.47 260.31 447.47 573.23 552.23 510.83 552.23 258.78 447.47 198.1 332.69 131.59"/><polygon class="cls-2" points="277.21 608.8 277.21 739.67 221.59 707.73 163.72 674.45 113.54 645.62 0 580.39 0 197.62 113.54 130.01 113.54 514.75 163.72 543.58 277.21 608.8"/></g></g></svg>