<svg xmlns="http://www.w3.org/2000/svg" xmlns:xlink="http://www.w3.org/1999/xlink" viewBox="0 0 1205.48 250.92"><defs><style>.cls-1{fill:url(#linear-gradient);}.cls-2{fill:url(#linear-gradient-2);}.cls-3{fill:#030e29;}</style><linearGradient id="linear-gradient" x1="117.81" y1="2.2" x2="154.65" y2="236.55" gradientUnits="userSpaceOnUse"><stop offset="0" stop-color="#ffbb03"/><stop offset="1" stop-color="#ff285f"/></linearGradient><linearGradient id="linear-gradient-2" x1="-3.87" y1="63.32" x2="63.68" y2="220.92" gradientUnits="userSpaceOnUse"><stop offset="0" stop-color="#ff44e4"/><stop offset="1" stop-color="#4b2ec5"/></linearGradient></defs><g id="Lager_2" data-name="Lager 2"><g id="Layer_1" data-name="Layer 1"><polygon class="cls-1" points="216.21 62.8 216.21 186.86 179.35 208.82 162.22 219.02 145.33 229.07 144.97 229.29 108.64 250.92 108.47 250.83 108.47 63.19 145.33 84.54 145.33 186.18 179.35 165.91 179.35 84.05 145.33 64.34 108.05 42.74 108.05 42.74 90.03 53.47 90.03 177.54 53.17 156.36 53.17 32.52 54.32 31.84 71.53 21.59 90.03 10.56 107.79 0 108.47 0.39 144.31 21.15 145.33 21.74 179.35 41.45 216.21 62.8"/><polygon class="cls-2" points="90.03 197.73 90.03 240.23 71.97 229.86 53.17 219.05 36.88 209.69 0 188.5 0 64.18 36.88 42.23 36.88 167.18 53.17 176.55 90.03 197.73"/><path class="cls-3" d="M296.85,83.73q22.56,0,37,13.09t14.5,34q0,20.88-14.5,34t-37,13.16H263.69V83.73Zm-10.2,76.79h10.2q13.15,0,20.68-8.05T325,130.85q0-13.56-7.51-21.61t-20.68-8.06h-10.2Z"/><path class="cls-3" d="M394.72,178.92q-16.38,0-26.85-10.54t-10.47-28q0-17.46,10.4-27.79t26.92-10.34q16.51,0,27.39,10.2T433,140.79a46.9,46.9,0,0,1-.54,7.25H380.89a13.09,13.09,0,0,0,12.56,11.28,18.1,18.1,0,0,0,6.51-.88,11.59,11.59,0,0,0,3.15-1.74,23.13,23.13,0,0,0,2.62-2.89h24.84A32.94,32.94,0,0,1,417.68,172Q408,178.92,394.72,178.92Zm9.8-53.77a14.6,14.6,0,0,0-9.53-3.29,13.56,13.56,0,0,0-9.26,3.29,14.25,14.25,0,0,0-4.7,8.52h28.06A12.18,12.18,0,0,0,404.52,125.15Z"/><path class="cls-3" d="M438.22,103.06h24.43l17.05,55.72,17.05-55.72h24.44L494.61,178H464.8Z"/><path class="cls-3" d="M563.61,178.92q-16.38,0-26.85-10.54t-10.47-28q0-17.46,10.4-27.79t26.92-10.34q16.51,0,27.39,10.2t10.88,28.33a45.69,45.69,0,0,1-.54,7.25H549.78a13.09,13.09,0,0,0,12.56,11.28,18.1,18.1,0,0,0,6.51-.88A11.59,11.59,0,0,0,572,156.7a23.13,23.13,0,0,0,2.62-2.89h24.84A32.89,32.89,0,0,1,586.57,172Q576.91,178.92,563.61,178.92Zm9.8-53.77a14.6,14.6,0,0,0-9.53-3.29,13.56,13.56,0,0,0-9.26,3.29,14.25,14.25,0,0,0-4.7,8.52H578A12.18,12.18,0,0,0,573.41,125.15Z"/><path class="cls-3" d="M616.64,178V78.63h23V178Z"/><path class="cls-3" d="M665.71,168.31q-11.34-10.6-11.34-27.92t11.28-27.73q11.26-10.39,27.92-10.4t27.86,10.4q11.21,10.41,11.21,27.73t-11.15,27.92q-11.15,10.6-27.79,10.61T665.71,168.31Zm39-13.83q4.57-4.83,4.57-14t-4.7-13.89a15.13,15.13,0,0,0-11.14-4.77,14.91,14.91,0,0,0-11.08,4.77q-4.64,4.76-4.63,13.89t4.76,14a15.23,15.23,0,0,0,11.21,4.84A14.57,14.57,0,0,0,704.71,154.48Z"/><path class="cls-3" d="M770.37,112.86q7.65-10.6,22-10.6a31.67,31.67,0,0,1,24.23,10.81q9.93,10.8,9.93,27.58t-9.93,27.53q-9.94,10.74-24,10.74T770.37,167.1v46.59h-23V103.06h23Zm27.79,41.42q5-4.75,5-13.63t-5-13.69a16,16,0,0,0-22.83-.07q-5,4.77-5,13.63t5,13.69a16,16,0,0,0,22.83.07Z"/><path class="cls-3" d="M864.07,103.06v11q7.13-11.8,22.69-11.81A29.13,29.13,0,0,1,901.6,106a25.71,25.71,0,0,1,10.13,10.74,32,32,0,0,1,10.81-10.54,28.44,28.44,0,0,1,14.84-4q13.7,0,21.75,8.45t8,23.5V178H944.36V137.3q0-7.26-3.83-11.21t-10.54-4q-6.71,0-10.54,4t-3.82,11.21V178H892.8V137.3q0-7.26-3.82-11.21t-10.54-4q-6.72,0-10.54,4t-3.83,11.21V178h-23V103.06Z"/><path class="cls-3" d="M1018.47,178.92q-16.38,0-26.85-10.54t-10.47-28q0-17.46,10.4-27.79t26.92-10.34q16.52,0,27.39,10.2t10.87,28.33a45.69,45.69,0,0,1-.54,7.25h-51.55a13.09,13.09,0,0,0,12.55,11.28,18.07,18.07,0,0,0,6.51-.88,11.52,11.52,0,0,0,3.16-1.74,23.94,23.94,0,0,0,2.62-2.89h24.84A32.94,32.94,0,0,1,1041.43,172Q1031.76,178.92,1018.47,178.92Zm9.8-53.77a14.6,14.6,0,0,0-9.53-3.29,13.6,13.6,0,0,0-9.27,3.29,14.29,14.29,0,0,0-4.69,8.52h28A12.17,12.17,0,0,0,1028.27,125.15Z"/><path class="cls-3" d="M1094.46,103.06v11q7.11-11.8,22.68-11.81,12.9,0,20.88,8.59t8,23.36V178h-22.82V137.3q0-7.26-3.83-11.21t-10.54-4q-6.71,0-10.54,4t-3.82,11.21V178h-23V103.06Z"/><path class="cls-3" d="M1197.3,158.51h8.18V178H1193.8q-12.61,0-19.53-5.57t-6.91-19.14V122.13h-7V103.06h7V84.8h23v18.26h15v19.07h-15v31.14Q1190.31,158.51,1197.3,158.51Z"/></g></g></svg>